<?xml version="1.0" encoding="UTF-8"?><svg id="Layer_2" xmlns="http://www.w3.org/2000/svg" viewBox="0 0 203.5 214.4"><g id="Layer_1-2"><path id="Tapping_foot" d="M16.2,3c5.3,5.5,11.7,17.6,16.8,24.3s2.9,3.6,4.4,5.6c20,26.2,40.7,52,61,78.1,1.7-7.8,2.9-15.9,5.5-23.5,8.1-23.9,23.7-44.2,50.6-46.5,78-6.7,51.9,151.6.5,171.5-13.3,5.1-29.2.1-38.5-10.5-3.7-4.2-12.4-17.3-15.9-20.1s-5.8-.5-8.2-1.7c-6.7-3.2-9.3-12.6-6.8-19.2s4.4-4.8,3.1-8L1.4,13.8C-1.2,10.6.1,4.7,3.1,2.2s9.5-2.9,13.1.8ZM9.4,10.8c18.7,30.3,38.1,59.6,58.1,88.9,8.8,12.8,18.3,24.9,26.4,38.1l1.8-.9,1,5,.5-27c-11.9-15.2-23.4-30.6-35.1-45.9S36.7,34.7,23.8,17.4c-1.1-1.5-3.4-2.2-3.7-2.8-1.6-2.8-3.4-6.4-5.4-9.1C11.4.8,9.9,2.7,4.8,2.9c-.4,3.4,2.9,5.1,4.6,7.9ZM119.3,118.9c5-28,21.3-66.5,52.5-72,.3-2.1,0-1.6-1.3-2.2-8.5-3.9-14.1-1.2-21.3,3.2-35.6,21.9-45,87.6-40.5,125.5,1.6,13.3,5.7,29.9,20,34.5-14-25-14.5-61.2-9.5-89ZM116,66.6c-4.3,7.7-4.3,12,1.3,19.3,6.1-12.3,12.9-25.4,23.5-34.5s7.2-4.5,10-7.5c-13.5,1.7-28.1,10.7-34.8,22.7ZM171.3,65.9l22.6,1.5c-1.5-5.9-11.4-18.5-17.5-19-9.3-.8-19.9,12.4-24.5,19.5l19.5-2ZM140.8,93.9c20-1.5,40.2-1.9,60,2,1.6-1.7-3.1-21.7-5.2-24.8-3.3-2.3-42.9-1.8-46.5,1.1s-9.2,20.8-8.3,21.7ZM199.8,125.9c.9-.9,2.6-23.1,1.9-25.4-1.5-4.5-25.5-2.8-30.4-4.6l-29.8,1.2c-4.4,1.5-5,23.2-4.7,27.8,21-1.4,42.3-4.3,63,1ZM162.3,150.9l30.5,4,6.9-25.5c-.2-1.4-10-2.4-12.3-2.5-11.3-.7-26.8-.6-38.1,0-3.1.2-13.4.6-13.4,3.4l2,22.6,24.4-2ZM142.9,175.8c13.4-.7,26.6,1.7,39.7,2.9l9.1-19.3c-.2-2.5-14.6-4.3-17.4-4.5-4.4-.3-34.2-.4-35.5,1l4.1,19.9ZM160.3,190.9c4.8.5,18.7-1.8,19.5-7.5.3-2.3-.9-1.3-2.3-1.6-7.8-2.1-13.3-1.7-21.2-1.9s-7.2-1.9-11.5,0c2.7,6.6,8.4,10.3,15.5,11Z"/></g></svg>