<?xml version="1.0" encoding="UTF-8"?><svg id="Layer_2" xmlns="http://www.w3.org/2000/svg" viewBox="0 0 95.6 257.6"><g id="Layer_1-2"><path id="Planted_foot" d="M89.8,217.3c1.7,6.9.3,4.8,3.9,11.1s-.9,16.9-9.1,20.8c-17.2,8.2-50,10.3-68.4,6.7-13.9-2.7-17.5-6.2-15.9-21,1.3-12,4.1-25.1,10.7-35.3s7.3-8.4,11.2-12.8c-2.2-51.8-3.1-103.3-4-155-.1-7.7-5.2-28.8,5.7-31.2,6.2-1.4,12.8-.5,14.1,6.5,2.5,14.3,2.6,32.6,4.4,47.6,5.1,42.5,11.8,84.9,16,127.5,17.4,5.1,27.2,18,31.4,35.1ZM36.3,170.9c.2,3.5-.1,7,0,10.5.4.5,1.3-1,1.5-1,4.9,0,10.1-.3,15,0s2,2,2.5.5l-5-37.5c-3.8-41.3-11.2-82.2-15-123.5-.5-5.2.9-10.5-1-15.5l-3.4,1.1-1.1-2.1h-1.5c0,2.8-1.7,4.7-2,7.5-.8,7.1.5,24.1,1,32.1M88.1,225.2c1.4-6.4-5.1-26.1-11.5-27.6-8.8-2-20.5,5.8-29.8,6.8-10.7,1.1-20.6-3.8-29-3-10.3.9-13.5,19.7-13.4,27.9,26.6,8.5,57.8,6.2,83.7-4ZM12.4,252.7c16.5,4.5,63,2.9,76.3-8.3,5.2-4.4,6.2-16.9,0-17s-13,4.7-16.5,5.5c-21.3,5-48.3,5.9-69-1.5-1.8,11.5-3.4,17.9,9.2,21.3Z"/></g></svg>