<?xml version="1.0" encoding="UTF-8"?><svg id="Layer_2" xmlns="http://www.w3.org/2000/svg" viewBox="0 0 85.2 110.5"><g id="Layer_1-2"><g id="Notes"><path id="NOTE_1" d="M42.6,88.6c-.9,3.1-4,12-5.5,14.2-4.7,6.8-16.4,9.3-23.5,6.5-15.1-5.9-18.4-28.7-6-40,8.9-8.2,20.2-6.6,28.7,1.5,4.3-17.1,8.2-34.3,12.6-51.4s3.1-14.5,4.7-17.2,4.2-2.6,6.5-2c4.2,1,2.3,8.4,2.6,11.5s1.3,5.3,1.9,6.1,3.1,2.6,3.8,3c2.3,1.3,4.9,1.6,7.4,3.2,4.4,3,9,9.8,9.6,15.6s-.4,11.1-.6,11.6c-.6,1.3-7,3.4-8,2-3.1-4-1.1-7.6-1.6-11.2-.8-6.6-5.8-12.1-10.9-13.6l-6.4-1.6c-.4,3.3-1.2,6.6-2.1,9.8-1.3,4.7-4.7,12.3-5.4,16.4"/></g></g></svg>