<?xml version="1.0" encoding="UTF-8"?><svg id="Layer_2" xmlns="http://www.w3.org/2000/svg" viewBox="0 0 83.5 141.7"><g id="Layer_1-2"><g id="Notes"><path id="NOTE_2" d="M0,125.2c3.2-12.7,16.4-16.4,26.8-17l.7-.7c-1-6.2-1.7-12.6-2.2-18.9-.9-12-1.8-24.8-2.2-36.8-.3-7.5-1-18.2-.4-25.4,0-1.1.1-2.2.9-3,1.4-.5,2.2.3,3.8-.2,7.4-2.2,19-8.9,26.8-12.4s10.2-4.1,15.2-6.4,12.7-8.9,13.4-.5-.3,14-.3,20.8c0,17.9,1.6,37.8.7,55.3-.1,3-.3,2.3,0,5.5.6,7.2,0,13-5.3,17.9-8.3,7.5-24.9,5.8-26.9-7.7-2.4-15.6,11.2-27.5,24.3-22.4v-41.3l-18.2,6.2-27.5,13.3c-.2.4-.1,7.9,0,9.1,1,15,5.2,31,6.2,46.3.2,2.4-.5,6.1-.2,8s1.9,3.4,2,6c.4,9.8-11.6,19.2-19.5,20.5-8.6,1.4-15.7-2.7-17.9-12.3v-4Z"/></g></g></svg>